<?xml version="1.0" encoding="iso-8859-1"?>
<!-- Generator: Adobe Illustrator 19.0.0, SVG Export Plug-In . SVG Version: 6.00 Build 0)  -->
<svg version="1.1" id="Layer_1" xmlns="http://www.w3.org/2000/svg" xmlns:xlink="http://www.w3.org/1999/xlink" x="0px" y="0px"
	 viewBox="0 0 512 512" style="enable-background:new 0 0 512 512;" xml:space="preserve">
<circle style="fill:#324A5E;" cx="256" cy="256" r="256"/>
<path style="fill:#2B3B4E;" d="M172.527,350.68l152.023,152.023c95.461-26.469,168.496-106.848,184.267-206.301L400.808,188.395
	l-106.053,71.809l-127.252-127.25l-43.956-9.895l-5.46,7.34l101.876,101.876l-43.739,39.815L172.527,350.68z"/>
<path style="fill:#CFDBE6;" d="M354.618,366.928H204.762c-22.137,0-40.146-18.01-40.146-40.146V158.477
	c0-15.482-12.597-28.079-28.079-28.079h-18.449v-12.067h18.451c22.137,0,40.146,18.01,40.146,40.146v168.305
	c0,15.482,12.597,28.079,28.079,28.079h149.856v12.067H354.618z"/>
<rect x="275.359" y="354.866" style="fill:#B8C9D9;" width="79.262" height="12.067"/>
<path style="fill:#FFD15D;" d="M335.453,323.146H204.581c-15.662,0-28.357-12.697-28.357-28.357V188.395h224.584l-38.453,115.36
	C358.495,315.335,347.66,323.146,335.453,323.146z"/>
<g>
	<path style="fill:#F9B54C;" d="M275.356,188.395v134.751h60.099c12.205,0,23.042-7.811,26.902-19.391l38.453-115.36H275.356z"/>
	<circle style="fill:#F9B54C;" cx="213.661" cy="360.9" r="20.704"/>
	<circle style="fill:#F9B54C;" cx="307.631" cy="360.9" r="20.704"/>
</g>
<g>
</g>
<g>
</g>
<g>
</g>
<g>
</g>
<g>
</g>
<g>
</g>
<g>
</g>
<g>
</g>
<g>
</g>
<g>
</g>
<g>
</g>
<g>
</g>
<g>
</g>
<g>
</g>
<g>
</g>
</svg>
