<?xml version="1.0" encoding="iso-8859-1"?>
<!-- Generator: Adobe Illustrator 19.0.0, SVG Export Plug-In . SVG Version: 6.00 Build 0)  -->
<svg version="1.1" id="Capa_1" xmlns="http://www.w3.org/2000/svg" xmlns:xlink="http://www.w3.org/1999/xlink" x="0px" y="0px"
	 viewBox="0 0 512 512" style="enable-background:new 0 0 512 512;" xml:space="preserve">
<rect x="113.17" y="102.42" style="fill:#ED718B;" width="95.22" height="93.32"/>
<path style="fill:#FBE096;" d="M188.284,121.942l-7.4-12.418c-1.912-3.208-6.558-3.208-8.47,0l-7.4,12.418
	c-1.912,3.208-6.558,3.208-8.47,0l-7.401-12.418c-1.912-3.208-6.558-3.208-8.47,0l-7.4,12.418c-1.912,3.208-6.558,3.208-8.47,0
	l-11.635-19.524c0-10.87,2.503-21.595,7.315-31.342l27.447-55.591c5.257-10.648,20.44-10.648,25.697,0l27.447,55.591
	c4.813,9.747,7.316,20.471,7.316,31.342l-11.635,19.524C194.841,125.151,190.195,125.151,188.284,121.942z"/>
<path style="fill:#ED718B;" d="M131.656,48.445l16.273-32.96c5.257-10.648,20.44-10.648,25.697,0l16.273,32.96H131.656z"/>
<path style="opacity:0.1;enable-background:new    ;" d="M201.074,71.076l-27.447-55.59c-4.246-8.599-14.964-10.25-21.701-4.959
	c1.605,1.26,2.986,2.91,3.997,4.959l27.446,55.59c4.813,9.747,7.316,20.471,7.316,31.342v71.26h-77.518v22.062h95.222v-93.322
	C208.389,91.548,205.885,80.823,201.074,71.076z"/>
<rect x="208.389" y="102.42" style="fill:#79C6E4;" width="95.22" height="93.32"/>
<path style="fill:#FBE096;" d="M283.506,121.942l-7.4-12.418c-1.912-3.208-6.558-3.208-8.47,0l-7.4,12.418
	c-1.912,3.208-6.558,3.208-8.47,0l-7.401-12.418c-1.912-3.208-6.558-3.208-8.47,0l-7.4,12.418c-1.912,3.208-6.558,3.208-8.47,0
	l-11.635-19.524c0-10.87,2.503-21.595,7.315-31.342l27.447-55.591c5.257-10.648,20.441-10.648,25.698,0l27.446,55.591
	c4.813,9.747,7.316,20.471,7.316,31.342l-11.635,19.524C290.064,125.151,285.418,125.151,283.506,121.942z"/>
<path style="fill:#79C6E4;" d="M226.878,48.445l16.273-32.96c5.257-10.648,20.441-10.648,25.698,0l16.273,32.96H226.878z"/>
<path style="opacity:0.1;enable-background:new    ;" d="M296.295,71.076l-27.447-55.59c-4.245-8.599-14.964-10.25-21.7-4.959
	c1.605,1.26,2.986,2.91,3.997,4.959l27.447,55.59c4.813,9.747,7.316,20.471,7.315,31.342v71.26h-77.518v22.062h95.222v-93.322
	C303.611,91.548,301.108,80.823,296.295,71.076z"/>
<rect x="303.609" y="102.42" style="fill:#90DCA3;" width="95.22" height="93.32"/>
<path style="fill:#FBE096;" d="M378.727,121.942l-7.4-12.418c-1.912-3.208-6.558-3.208-8.47,0l-7.401,12.418
	c-1.912,3.208-6.558,3.208-8.47,0l-7.401-12.418c-1.912-3.208-6.558-3.208-8.47,0l-7.4,12.418c-1.912,3.208-6.558,3.208-8.47,0
	l-11.635-19.524c0-10.87,2.503-21.595,7.315-31.342l27.447-55.591c5.257-10.648,20.441-10.648,25.698,0l27.446,55.591
	c4.813,9.747,7.316,20.471,7.316,31.342l-11.635,19.524C385.285,125.151,380.639,125.151,378.727,121.942z"/>
<path style="fill:#90DCA3;" d="M322.1,48.445l16.273-32.96c5.257-10.648,20.441-10.648,25.698,0l16.273,32.96H322.1z"/>
<path style="opacity:0.1;enable-background:new    ;" d="M391.517,71.076l-27.447-55.59c-4.246-8.599-14.964-10.25-21.701-4.959
	c1.605,1.26,2.986,2.91,3.997,4.959l27.446,55.59c4.813,9.747,7.316,20.471,7.316,31.342v71.26H303.61v22.062h95.222v-93.322
	C398.833,91.548,396.329,80.823,391.517,71.076z"/>
<path style="fill:#FDA75F;" d="M408.115,504.5h-304.23c-20.88,0-37.806-16.926-37.806-37.806V233.546
	c0-20.879,16.926-37.806,37.806-37.806h304.229c20.88,0,37.806,16.926,37.806,37.806v233.149
	C445.92,487.574,428.993,504.5,408.115,504.5z"/>
<rect x="66.08" y="277.72" style="fill:#404B58;" width="379.84" height="34.16"/>
<ellipse style="fill:#FFFFFF;" cx="256" cy="295.97" rx="130.73" ry="54.66"/>
<path style="opacity:0.1;enable-background:new    ;" d="M309.1,402.945c-8.988,1.332-17.013,6.693-21.276,14.717
	c-6.05,11.388-18.029,19.143-31.824,19.143s-25.773-7.756-31.824-19.143c-4.263-8.024-12.288-13.385-21.277-14.717
	c-45.946-6.807-98.017-20.454-136.82-34.814v98.563c0,20.879,16.926,37.806,37.806,37.806h304.229
	c20.88,0,37.806-16.926,37.806-37.806v-98.563C407.117,382.491,355.046,396.138,309.1,402.945z"/>
<path style="opacity:0.1;enable-background:new    ;" d="M309.1,402.945c-8.988,1.332-17.013,6.693-21.276,14.717
	c-6.05,11.388-18.029,19.143-31.824,19.143s-25.773-7.755-31.824-19.143c-4.263-8.024-12.288-13.385-21.277-14.717
	c-45.946-6.807-98.017-20.454-136.82-34.814v18.529c38.803,14.36,90.874,28.007,136.82,34.814
	c8.988,1.332,17.013,6.693,21.277,14.717c6.05,11.388,18.029,19.143,31.824,19.143s25.774-7.755,31.824-19.143
	c4.263-8.024,12.288-13.385,21.276-14.717c45.946-6.807,98.017-20.454,136.82-34.814v-18.529
	C407.117,382.491,355.046,396.138,309.1,402.945z"/>
<path d="M404.809,445.759c4.143,0,7.5-3.357,7.5-7.5s-3.357-7.5-7.5-7.5H373.88c-4.143,0-7.5,3.357-7.5,7.5s3.357,7.5,7.5,7.5
	H404.809z M320.497,306.139c4.143,0,7.5-3.357,7.5-7.5v-10.706c0-4.143-3.357-7.5-7.5-7.5c-4.142,0-7.5,3.357-7.5,7.5v10.706
	C312.997,302.781,316.355,306.139,320.497,306.139z M335.452,465.475c0,4.143,3.358,7.5,7.5,7.5h61.857c4.143,0,7.5-3.357,7.5-7.5
	s-3.357-7.5-7.5-7.5h-61.857C338.81,457.975,335.452,461.332,335.452,465.475z M256,314.36c8.685,0,16.943-3.762,22.659-10.319
	c2.721-3.123,2.396-7.86-0.727-10.582c-3.123-2.721-7.86-2.397-10.582,0.726c-2.866,3.289-7.003,5.175-11.351,5.175
	c-4.348,0-8.484-1.886-11.351-5.175c-2.723-3.122-7.46-3.447-10.582-0.726c-3.123,2.722-3.447,7.459-0.727,10.582
	C239.057,310.599,247.315,314.36,256,314.36z M445.92,238.314c-4.143,0-7.5,3.357-7.5,7.5v24.404h-55.866
	c-7.252-7.47-17.759-14.193-31.218-19.82c-25.588-10.698-59.445-16.59-95.336-16.59s-69.748,5.892-95.336,16.59
	c-13.459,5.627-23.966,12.35-31.218,19.82H73.58v-36.672c0-16.711,13.595-30.306,30.306-30.306h304.229
	c8.096,0,15.706,3.152,21.43,8.877c2.93,2.927,7.678,2.929,10.607,0c2.929-2.93,2.929-7.678,0-10.607
	c-8.558-8.557-19.936-13.27-32.037-13.27h-1.781v-85.822c0-11.956-2.798-23.942-8.091-34.662l-27.446-55.59
	C367.091,4.662,359.591,0,351.221,0c-8.369,0-15.869,4.662-19.573,12.166l-27.446,55.59c-0.203,0.411-0.395,0.828-0.591,1.243
	c-0.196-0.415-0.388-0.832-0.591-1.243l-27.445-55.59C271.868,4.662,264.368,0,256,0c-8.369,0-15.869,4.662-19.573,12.166
	l-27.448,55.59c-0.203,0.411-0.395,0.827-0.59,1.241c-0.195-0.415-0.388-0.831-0.59-1.241l-27.445-55.59
	C176.647,4.662,169.147,0,160.777,0c-8.369,0-15.869,4.662-19.573,12.166l-27.448,55.591c-5.292,10.722-8.09,22.707-8.09,34.661
	v85.822h-1.781c-24.981,0-45.306,20.324-45.306,45.306v182.235c0,4.142,3.357,7.5,7.5,7.5s7.5-3.358,7.5-7.5v-36.999
	c39.255,13.634,87.35,25.526,128.221,31.582c6.8,1.007,12.689,5.051,15.752,10.817c7.578,14.263,22.311,23.123,38.447,23.123
	c16.136,0,30.869-8.86,38.447-23.124c3.063-5.766,8.952-9.81,15.753-10.816c40.869-6.055,88.964-17.947,128.22-31.582v87.912
	c0,16.711-13.595,30.306-30.306,30.306H103.886c-16.711,0-30.306-13.595-30.306-30.306V456.45c0-4.143-3.357-7.5-7.5-7.5
	s-7.5,3.357-7.5,7.5v10.244c0,24.982,20.324,45.306,45.306,45.306h304.229c24.981,0,45.306-20.324,45.306-45.306v-220.88
	C453.42,241.671,450.063,238.314,445.92,238.314z M345.099,18.807c1.743-3.532,5.127-3.807,6.123-3.807
	c0.996,0,4.38,0.274,6.124,3.807l10.931,22.139h-34.109L345.099,18.807z M317.651,74.396l9.11-18.451h48.921l9.11,18.451
	c3.988,8.077,6.198,17.044,6.483,26.053l-8.313,13.949l-5.193-8.714c-2.264-3.799-6.256-6.066-10.678-6.066
	c-4.421,0-8.413,2.267-10.677,6.066l-5.193,8.714l-5.192-8.713c-2.263-3.799-6.254-6.066-10.677-6.067h-0.001
	c-4.422,0-8.414,2.267-10.678,6.066l-5.192,8.714l-8.313-13.948C311.454,91.442,313.664,82.474,317.651,74.396z M311.111,128.596
	c2.252,2.067,5.195,3.253,8.371,3.253c4.423-0.001,8.414-2.269,10.676-6.066l5.193-8.714l5.193,8.714
	c2.264,3.799,6.256,6.066,10.677,6.066c4.422,0,8.414-2.268,10.678-6.066l5.192-8.714l5.193,8.714
	c2.264,3.799,6.256,6.066,10.678,6.066c3.176,0,6.119-1.186,8.37-3.253v59.645h-80.222v-59.645H311.111z M249.876,18.807
	C251.62,15.274,255.004,15,256,15s4.38,0.274,6.124,3.807l10.93,22.139h-34.109L249.876,18.807z M222.428,74.396l9.111-18.451
	h48.921l9.11,18.451c3.988,8.078,6.198,17.046,6.483,26.054l-8.312,13.948l-5.193-8.714c-2.264-3.799-6.256-6.066-10.678-6.066
	c-4.421,0-8.413,2.267-10.677,6.066L256,114.398l-5.192-8.713c-2.263-3.799-6.254-6.066-10.677-6.067h-0.001
	c-4.422,0-8.414,2.267-10.678,6.066l-5.192,8.714l-8.314-13.95C216.23,91.442,218.44,82.476,222.428,74.396z M215.889,128.596
	c2.252,2.067,5.195,3.253,8.371,3.253c4.421,0,8.413-2.268,10.677-6.066l5.193-8.714l5.192,8.713
	c2.263,3.799,6.254,6.066,10.677,6.067H256c4.422,0,8.414-2.268,10.678-6.066l5.193-8.714l5.192,8.714
	c2.264,3.799,6.256,6.066,10.677,6.066c3.176,0,6.12-1.186,8.371-3.253v59.645h-80.223v-59.645H215.889z M154.655,18.807
	c1.743-3.532,5.127-3.807,6.123-3.807s4.38,0.274,6.124,3.807l10.93,22.139h-34.109L154.655,18.807z M127.207,74.396l9.111-18.451
	h48.921l9.11,18.451c3.988,8.078,6.197,17.045,6.483,26.053l-8.313,13.948l-5.192-8.714c-2.265-3.799-6.257-6.066-10.679-6.066
	c-4.423,0.001-8.414,2.269-10.676,6.066l-5.193,8.715l-5.193-8.715c-2.264-3.799-6.256-6.066-10.677-6.066
	c-4.422,0-8.414,2.267-10.678,6.066l-5.193,8.714l-8.313-13.949C121.01,91.443,123.219,82.476,127.207,74.396z M120.667,128.596
	c2.252,2.067,5.194,3.253,8.37,3.253c4.422,0,8.414-2.268,10.678-6.066l5.193-8.714l5.192,8.714
	c2.264,3.799,6.256,6.066,10.678,6.066s8.414-2.268,10.678-6.066l5.193-8.714l5.192,8.714c2.264,3.799,6.256,6.066,10.677,6.066
	c3.176,0,6.119-1.186,8.37-3.253v59.644h-80.222v-59.644H120.667z M138.198,282.852c0.193-0.206,0.374-0.422,0.543-0.648
	c5.627-6.493,15.077-12.685,27.709-17.967c23.797-9.949,55.6-15.429,89.55-15.429s65.753,5.479,89.55,15.429
	c12.632,5.281,22.082,11.474,27.709,17.967c0.169,0.226,0.35,0.443,0.543,0.648c3.554,4.308,5.432,8.738,5.432,13.116
	c0,3.743-1.374,7.524-3.992,11.234c-0.151,0.189-0.292,0.385-0.424,0.588c-5.344,7.197-15.382,14.104-29.269,19.909
	c-23.797,9.949-55.6,15.429-89.55,15.429s-65.753-5.479-89.55-15.429c-13.886-5.806-23.925-12.712-29.269-19.909
	c-0.132-0.203-0.274-0.399-0.424-0.588c-2.617-3.71-3.992-7.492-3.992-11.234C132.766,291.59,134.643,287.159,138.198,282.852z
	 M73.58,285.218h46.101c-1.262,3.497-1.916,7.088-1.916,10.75c0,2.849,0.394,5.655,1.161,8.407H73.58V285.218z M438.42,362.877
	c-39.248,14.064-88.677,26.464-130.418,32.649c-11.493,1.702-21.513,8.662-26.801,18.616c-4.97,9.352-14.626,15.162-25.201,15.162
	s-20.231-5.81-25.201-15.161c-5.288-9.955-15.308-16.915-26.8-18.617c-41.742-6.185-91.172-18.585-130.419-32.649v-43.502h53.715
	c7.253,8.411,18.517,15.953,33.369,22.163c25.588,10.698,59.445,16.59,95.336,16.59s69.748-5.892,95.336-16.59
	c14.852-6.21,26.116-13.752,33.369-22.163h53.715L438.42,362.877L438.42,362.877z M438.42,304.375h-45.346
	c0.767-2.753,1.161-5.559,1.161-8.407c0-3.662-0.654-7.253-1.916-10.75h46.101L438.42,304.375L438.42,304.375z M191.501,306.139
	c4.143,0,7.5-3.357,7.5-7.5v-10.706c0-4.143-3.357-7.5-7.5-7.5s-7.5,3.357-7.5,7.5v10.706
	C184.001,302.781,187.358,306.139,191.501,306.139z"/>
<g>
</g>
<g>
</g>
<g>
</g>
<g>
</g>
<g>
</g>
<g>
</g>
<g>
</g>
<g>
</g>
<g>
</g>
<g>
</g>
<g>
</g>
<g>
</g>
<g>
</g>
<g>
</g>
<g>
</g>
</svg>
