<?xml version="1.0" encoding="iso-8859-1"?>
<!-- Generator: Adobe Illustrator 17.1.0, SVG Export Plug-In . SVG Version: 6.00 Build 0)  -->
<!DOCTYPE svg PUBLIC "-//W3C//DTD SVG 1.1//EN" "http://www.w3.org/Graphics/SVG/1.1/DTD/svg11.dtd">
<svg version="1.1" id="Capa_1" xmlns="http://www.w3.org/2000/svg" xmlns:xlink="http://www.w3.org/1999/xlink"  width="1" height="1" fill="white"
	 viewBox="0 0 100 100" style="enable-background:new 0 0 100 100;" xml:space="preserve">
<path d="M59.564,192.008c-0.303,0-0.609-0.068-0.896-0.212c-0.866-0.435-1.296-1.426-1.021-2.354l25.727-87.083H43.777
	c-0.62,0-1.205-0.288-1.584-0.779c-0.378-0.49-0.508-1.13-0.35-1.729L67.712,1.491C67.943,0.612,68.737,0,69.646,0h9.987
	c0.029,0,0.058,0,0.086,0h39.747c0.653,0,1.265,0.319,1.639,0.854s0.463,1.219,0.239,1.833L96.909,69.491h51.321
	c0.757,0,1.449,0.428,1.788,1.104c0.339,0.677,0.267,1.487-0.187,2.094l-72.05,96.308c-0.024,0.034-0.049,0.067-0.075,0.101
	l-16.54,22.108C60.778,191.725,60.178,192.008,59.564,192.008z M46.372,98.358H86.05c0.631,0,1.225,0.298,1.602,0.803
	s0.495,1.159,0.316,1.764l-23.327,78.959l9.693-12.957l23.419-75.524H56.801c-0.62,0-1.205-0.287-1.583-0.778
	c-0.379-0.49-0.509-1.129-0.352-1.729L77.087,4h-5.898L46.372,98.358z M59.392,87.402h41.076c0.635,0,1.233,0.302,1.61,0.813
	c0.377,0.512,0.489,1.172,0.3,1.779l-20.891,67.371l62.749-83.875H94.048c-0.653,0-1.265-0.319-1.639-0.854
	s-0.463-1.219-0.239-1.833L116.605,4H81.221L59.392,87.402z"/>
<g>
</g>
<g>
</g>
<g>
</g>
<g>
</g>
<g>
</g>
<g>
</g>
<g>
</g>
<g>
</g>
<g>
</g>
<g>
</g>
<g>
</g>
<g>
</g>
<g>
</g>
<g>
</g>
<g>
</g>
</svg>
