<svg id="Lager_1" data-name="Lager 1" xmlns="http://www.w3.org/2000/svg" viewBox="0 0 228.12 210.62"><defs><style>.cls-1{fill:#ea5b0c;}.cls-2{fill:#1d71b8;}.cls-3{fill:#be1622;}.cls-4{fill:#dedc00;}.cls-5{fill:#009fe3;}.cls-6{fill:#f39200;}.cls-7{fill:#442602;}.cls-8{fill:#3aaa35;}</style></defs><title>Rityta 1</title><polygon class="cls-1" points="7.74 157.66 182.41 197.97 182.41 205.62 7.74 205.62 7.74 157.66"/><polygon class="cls-2" points="190.34 156.09 81.47 168.53 86.55 175.85 182.41 197.97 190.34 156.09"/><path class="cls-3" d="M194.38,145l22.27-89.79L48.42,14s-32.82,133-34,138.3S71.25,169.7,71.25,169.7l121.09-15.64Z"/><polygon class="cls-4" points="223.12 203.38 180.42 203.38 216.65 55.26 220.78 55.26 223.12 205.62 223.12 203.38"/><polygon class="cls-5" points="223.12 5 47.88 5 48.42 14.03 223.12 55.26 223.12 5"/><polygon class="cls-6" points="5 5 50.64 5 13.19 157.66 5 157.66 5 5"/><path class="cls-7" d="M228.12,210.62H0V0H228.12ZM10,200.62H218.12V10H10Z"/><path class="cls-7" d="M186.19,204,6.76,163.4,42,7.45,221.43,48ZM18.72,155.85,178.64,192,209.48,55.55,49.56,19.41Z"/><rect class="cls-8" x="63.1" y="102.99" width="124.19" height="60.89" transform="translate(-14.34 15.07) rotate(-6.52)"/><path class="cls-7" d="M62.55,176.27l-8-70.43L187.83,90.6l8,70.44Zm3-61.63,5.77,50.56,113.46-13L179,101.67Z"/></svg>