<svg id="Lager_1" data-name="Lager 1" xmlns="http://www.w3.org/2000/svg" viewBox="0 0 1140.08 237.46"><defs><style>.cls-1,.cls-11{fill:#ea990c;}.cls-2{fill:#0099cd;}.cls-3{fill:#ec663b;}.cls-4{fill:#9bc65c;}.cls-5{fill:#fdcd68;}.cls-6{fill:#41bac0;}.cls-7,.cls-8{fill:#333;}.cls-8{font-size:79.46px;}.cls-11,.cls-8{font-family:Montserrat-Bold, Montserrat;font-weight:700;}.cls-9{letter-spacing:-0.01em;}.cls-10{fill:#55b364;}.cls-11{font-size:151.12px;}</style></defs><title>Rityta 1</title><polygon class="cls-1" points="20.89 172.69 195.56 213.01 195.56 220.65 20.89 220.65 20.89 172.69"/><polygon class="cls-2" points="203.49 171.12 94.62 183.56 99.7 190.88 195.56 213.01 203.49 171.12"/><path class="cls-3" d="M207.53,160.07,229.8,70.29,61.57,29.06s-32.82,133-34,138.3S84.4,184.73,84.4,184.73l121.09-15.64Z"/><polygon class="cls-4" points="236.27 218.41 193.57 218.41 229.8 70.29 233.93 70.29 236.27 220.65 236.27 218.41"/><polygon class="cls-5" points="236.27 20.03 61.04 20.03 61.57 29.06 236.27 70.29 236.27 20.03"/><polygon class="cls-6" points="18.15 20.03 63.79 20.03 26.34 172.69 18.15 172.69 18.15 20.03"/><path class="cls-7" d="M241.27,225.65H13.15V15H241.27Zm-218.12-10H231.27V25H23.15Z"/><path class="cls-7" d="M199.34,219,19.91,178.44l35.25-156L234.58,63ZM31.87,170.89,191.79,207,222.63,70.58,62.71,34.44Z"/><text class="cls-8" transform="translate(282.57 221.24)">A<tspan class="cls-9" x="60.87" y="0">R</tspan><tspan x="118.48" y="0">T &amp; PO</tspan><tspan class="cls-9" x="395.64" y="0">S</tspan><tspan x="445.55" y="0">TERSHOP</tspan></text><rect class="cls-10" x="76.25" y="118.02" width="124.19" height="60.89" transform="translate(-15.96 16.66) rotate(-6.52)"/><path class="cls-7" d="M75.7,191.3l-8-70.43L201,105.64,209,176.07Zm3-61.63,5.77,50.56,113.46-13-5.78-50.56Z"/><text class="cls-11" transform="translate(271.56 122.92)">FRAME <tspan class="cls-6" x="611.87" y="0">ME</tspan></text></svg>