<svg id="Lager_1" data-name="Lager 1" xmlns="http://www.w3.org/2000/svg" viewBox="0 0 1140.08 237.46"><defs><style>.cls-1{fill:#ea990c;}.cls-2{fill:#0099cd;}.cls-3{fill:#ec663b;}.cls-4{fill:#9bc65c;}.cls-5{fill:#fdcd68;}.cls-6{fill:#41bac0;}.cls-7{fill:#333;}.cls-8{fill:#55b364;}</style></defs><title>Rityta 1</title><polygon class="cls-1" points="20.89 172.69 195.56 213.01 195.56 220.65 20.89 220.65 20.89 172.69"/><polygon class="cls-2" points="203.49 171.12 94.62 183.56 99.7 190.88 195.56 213.01 203.49 171.12"/><path class="cls-3" d="M207.53,160.07,229.8,70.29,61.57,29.06s-32.82,133-34,138.3S84.4,184.73,84.4,184.73l121.09-15.64Z"/><polygon class="cls-4" points="236.27 218.41 193.57 218.41 229.8 70.29 233.93 70.29 236.27 220.65 236.27 218.41"/><polygon class="cls-5" points="236.27 20.03 61.04 20.03 61.57 29.06 236.27 70.29 236.27 20.03"/><polygon class="cls-6" points="18.15 20.03 63.79 20.03 26.34 172.69 18.15 172.69 18.15 20.03"/><path class="cls-7" d="M241.27,225.65H13.15V15H241.27Zm-218.12-10H231.27V25H23.15Z"/><path class="cls-7" d="M199.34,219,19.91,178.44l35.25-156L234.58,63ZM31.87,170.89,191.79,207,222.63,70.58,62.71,34.44Z"/><path class="cls-7" d="M325.8,209.32H300l-4.93,11.92H281.86l24.79-55.62h12.72l24.87,55.62H330.73Zm-4.05-9.77-8.82-21.3-8.82,21.3Z"/><path class="cls-7" d="M385.48,221.24l-10.73-15.49H362.91v15.49H350V165.62h24.08c14.86,0,24.15,7.71,24.15,20.18,0,8.35-4.21,14.46-11.44,17.56l12.48,17.88ZM373.4,176.11H362.91V195.5H373.4c7.87,0,11.84-3.66,11.84-9.7S381.27,176.11,373.4,176.11Z"/><path class="cls-7" d="M419.17,176.11h-17.8V165.62h48.48v10.49H432v45.13H419.17Z"/><path class="cls-7" d="M522,222.2l-6.68-6.2a29.76,29.76,0,0,1-18.59,6.2c-12.24,0-21.22-6.36-21.22-15.26,0-7,3.73-11.84,12.24-16.61-4.06-4.21-5.73-7.79-5.73-11.76,0-8.11,6.84-13.67,17.33-13.67,9.61,0,16,4.93,16,12.8,0,5.72-3.34,9.93-10.89,14.06l10.18,9.46a36.1,36.1,0,0,0,2.78-8.66l9.93,3.1a36.69,36.69,0,0,1-5.08,12.63l6.51,6Zm-14-13-13.43-12.55c-5.08,2.94-6.91,5.48-6.91,8.9,0,4,3.81,6.91,9.93,6.91A17.74,17.74,0,0,0,508,209.24Zm-14.7-30.83c0,2.15.87,3.74,4.29,7.07,5.48-2.94,7.23-5,7.23-7.55,0-2.7-1.9-4.6-5.48-4.6C495.53,173.33,493.31,175.47,493.31,178.41Z"/><path class="cls-7" d="M607.82,185.8c0,12.4-9.3,20.11-24.16,20.11H572.45v15.33H559.58V165.62h24.08C598.52,165.62,607.82,173.33,607.82,185.8Zm-13,0c0-6.12-4-9.69-11.84-9.69H572.45v19.31h10.49C590.81,195.42,594.78,191.84,594.78,185.8Z"/><path class="cls-7" d="M614.25,193.43c0-16.53,12.87-28.77,30.44-28.77s30.43,12.16,30.43,28.77-13,28.77-30.43,28.77S614.25,210,614.25,193.43Zm47.84,0c0-10.57-7.47-17.8-17.4-17.8s-17.41,7.23-17.41,17.8,7.47,17.8,17.41,17.8S662.09,204,662.09,193.43Z"/><path class="cls-7" d="M680.44,215.76l4.37-9.69a32.78,32.78,0,0,0,18.36,5.8c7.63,0,10.73-2.55,10.73-6,0-10.41-32.35-3.26-32.35-23.92,0-9.46,7.63-17.33,23.45-17.33,7,0,14.14,1.67,19.31,4.93l-4,9.77A31.44,31.44,0,0,0,704.92,175c-7.63,0-10.57,2.87-10.57,6.36,0,10.25,32.34,3.18,32.34,23.6,0,9.3-7.71,17.25-23.6,17.25C694.27,222.2,685.37,219.58,680.44,215.76Z"/><path class="cls-7" d="M746.24,176.11h-17.8V165.62h48.47v10.49h-17.8v45.13H746.24Z"/><path class="cls-7" d="M826.89,210.91v10.33H783.82V165.62h42V176H796.62V188h25.82v10H796.62v12.87Z"/><path class="cls-7" d="M872.58,221.24l-10.72-15.49H850v15.49H837.14V165.62h24.08c14.86,0,24.16,7.71,24.16,20.18,0,8.35-4.21,14.46-11.44,17.56l12.47,17.88Zm-12.07-45.13H850V195.5h10.49c7.86,0,11.84-3.66,11.84-9.7S868.37,176.11,860.51,176.11Z"/><path class="cls-7" d="M891.18,215.76l4.37-9.69a32.74,32.74,0,0,0,18.35,5.8c7.63,0,10.73-2.55,10.73-6,0-10.41-32.34-3.26-32.34-23.92,0-9.46,7.63-17.33,23.44-17.33,7,0,14.15,1.67,19.31,4.93l-4,9.77A31.44,31.44,0,0,0,915.65,175c-7.63,0-10.57,2.87-10.57,6.36,0,10.25,32.35,3.18,32.35,23.6,0,9.3-7.71,17.25-23.61,17.25C905,222.2,896.1,219.58,891.18,215.76Z"/><path class="cls-7" d="M997.26,165.62v55.62H984.39v-22.8H959.12v22.8H946.24V165.62h12.88v21.93h25.27V165.62Z"/><path class="cls-7" d="M1007,193.43c0-16.53,12.88-28.77,30.44-28.77s30.43,12.16,30.43,28.77-13,28.77-30.43,28.77S1007,210,1007,193.43Zm47.84,0c0-10.57-7.47-17.8-17.4-17.8s-17.41,7.23-17.41,17.8,7.47,17.8,17.41,17.8S1054.79,204,1054.79,193.43Z"/><path class="cls-7" d="M1125.75,185.8c0,12.4-9.3,20.11-24.16,20.11h-11.2v15.33h-12.88V165.62h24.08C1116.45,165.62,1125.75,173.33,1125.75,185.8Zm-13,0c0-6.12-4-9.69-11.84-9.69h-10.49v19.31h10.49C1108.75,195.42,1112.72,191.84,1112.72,185.8Z"/><rect class="cls-8" x="76.25" y="118.02" width="124.19" height="60.89" transform="translate(-15.96 16.66) rotate(-6.52)"/><path class="cls-7" d="M75.7,191.3l-8-70.43L201,105.64,209,176.07Zm3-61.63,5.77,50.56,113.46-13-5.78-50.56Z"/><path class="cls-1" d="M308.58,36.78v28h49V84.38h-49v38.54H284.1V17.13h79.95V36.78Z"/><path class="cls-1" d="M448.07,122.92,427.66,93.45H405.15v29.47H380.66V17.13h45.79c28.27,0,45.95,14.66,45.95,38.39,0,15.87-8,27.5-21.77,33.4l23.73,34Zm-23-85.84h-20V74h20c15,0,22.51-7,22.51-18.44C447.61,43.88,440.06,37.08,425.1,37.08Z"/><path class="cls-1" d="M561.4,100.25H512.29l-9.37,22.67H477.83L525,17.13h24.18l47.3,105.79H570.77Zm-7.71-18.59-16.77-40.5-16.78,40.5Z"/><path class="cls-1" d="M703.76,122.92l-.16-63.47-31.13,52.29h-11l-31-50.93v62.11h-23V17.13h20.25l39.59,65.74,39-65.74h20.1l.31,105.79Z"/><path class="cls-1" d="M833.71,103.27v19.65H751.8V17.13h80V36.78H776.14v23h49.11v19H776.14v24.48Z"/><path class="cls-6" d="M992.23,122.92l-.15-63.47L961,111.74h-11l-31-50.93v62.11H896V17.13h20.25l39.59,65.74,39-65.74h20.1l.3,105.79Z"/><path class="cls-6" d="M1122.19,103.27v19.65h-81.91V17.13h80V36.78h-55.62v23h49.12v19h-49.12v24.48Z"/></svg>