<svg xmlns="http://www.w3.org/2000/svg" data-name="Lager 1" width="229" height="210.65217399191545"><rect id="backgroundrect" width="100%" height="100%" x="0" y="0" fill="none" stroke="none" class="" style=""/><defs><style>.cls-1{fill:#ea990c;}.cls-2{fill:#0099cd;}.cls-3{fill:#ec663b;}.cls-4{fill:#9bc65c;}.cls-5{fill:#fdcd68;}.cls-6{fill:#41bac0;}.cls-7{fill:#333;}.cls-8{fill:#55b364;}</style></defs><title>Rityta 1</title><g class="currentLayer" style=""><title>Layer 1</title><polygon class="cls-1" points="7.739999771118164,157.69000244140625 182.40999794006348,198.00999450683594 182.40999794006348,205.64999389648438 7.739999771118164,205.64999389648438 7.739999771118164,157.69000244140625 " id="svg_1"/><polygon class="cls-2" points="190.3400058746338,156.1199951171875 81.47000312805176,168.55999755859375 86.54999732971191,175.8800048828125 182.40999794006348,198.00999450683594 190.3400058746338,156.1199951171875 " id="svg_2"/><path class="cls-3" d="M194.38000038146973,145.07 L216.65000038146974,55.290000000000006 L48.42000038146973,14.059999999999999 s-32.82,133 -34,138.3 S71.25000038146973,169.73 71.25000038146973,169.73 l121.09,-15.64 z" id="svg_3"/><polygon class="cls-4" points="223.12000465393066,203.41000366210938 180.42000770568848,203.41000366210938 216.65000343322754,55.290000915527344 220.77999305725098,55.290000915527344 223.12000465393066,205.64999389648438 223.12000465393066,203.41000366210938 " id="svg_4"/><polygon class="cls-5" points="223.12000465393066,5.030000686645508 47.89000129699707,5.030000686645508 48.420000076293945,14.059999465942383 223.12000465393066,55.290000915527344 223.12000465393066,5.030000686645508 " id="svg_5"/><polygon class="cls-6" points="5,5.030000686645508 50.64000129699707,5.030000686645508 13.190000534057617,157.69000244140625 5,157.69000244140625 5,5.030000686645508 " id="svg_6"/><path class="cls-7" d="M228.12000038146974,210.65 H3.8146972691777137e-7 V0 H228.12000038146974 zm-218.12,-10 H218.12000038146974 V10 H10.000000381469725 z" id="svg_7"/><path class="cls-7" d="M186.19000038146973,204 L6.760000381469727,163.44 l35.25,-156 L221.43000038146974,48 zM18.720000381469728,155.89 L178.64000038146972,192 L209.48000038146972,55.58 L49.56000038146973,19.439999999999998 z" id="svg_8"/><rect class="cls-8" x="47.14000129699707" y="119.67999267578125" width="124.19000244140625" height="60.88999938964844" transform="rotate(-6.519999980926514 -29.10999870300293,1.6599998474121025) " id="svg_23"/><path class="cls-7" d="M62.55000038146973,176.3 l-8,-70.43 L187.85000038146973,90.64 L195.85000038146973,161.07 zm3,-61.63 l5.77,50.56 l113.46,-13 l-5.78,-50.56 z" id="svg_24"/><path fill="" stroke-dashoffset="" fill-rule="nonzero" marker-start="" marker-mid="" marker-end="" id="svg_43" d="M1122.9350865273107,101.37086988121186 L1123.2236581586772,101.37086988121186 L1123.2236581586772,101.65944151257887 L1122.9350865273107,101.65944151257887 L1122.9350865273107,101.37086988121186 zM1122.9687532176365,101.11596494017101 L1122.9687532176365,101.33720319088572 L1123.189991468351,101.33720319088572 L1123.189991468351,101.11596494017101 L1122.9687532176365,101.11596494017101 z" style="color: rgb(0, 0, 0);" class=""/><path fill="" stroke-dashoffset="" fill-rule="nonzero" marker-start="" marker-mid="" marker-end="" id="svg_48" d="M1122.3943285367595,116.62158275935795 L1122.9378067900166,116.62158275935795 L1122.9378067900166,117.16506101261496 L1122.3943285367595,117.16506101261496 L1122.3943285367595,116.62158275935795 zM1122.457734332973,116.14151030231426 L1122.457734332973,116.55817696314463 L1122.8744009938032,116.55817696314463 L1122.8744009938032,116.14151030231426 L1122.457734332973,116.14151030231426 z" style="color: rgb(0, 0, 0);" class=""/></g></svg>