<?xml version="1.0" encoding="iso-8859-1"?>
<!-- Generator: Adobe Illustrator 19.0.0, SVG Export Plug-In . SVG Version: 6.00 Build 0)  -->
<svg version="1.1" id="Layer_1" xmlns="http://www.w3.org/2000/svg" xmlns:xlink="http://www.w3.org/1999/xlink" x="0px" y="0px"
	 viewBox="0 0 512 512" style="enable-background:new 0 0 512 512;" xml:space="preserve">
<path style="fill:#FF877F;" d="M137.574,401.801c-3.695,0-6.682-0.555-9.139-1.707l-2.116-0.981l-1.647-1.673
	c-3.558-3.644-4.676-8.397-6.212-17.647c-1.664-9.967-3.541-21.222-13.687-29.193c-10.334-8.124-8.73-18.449-6.852-23.876
	c4.548-13.141,21.001-27.324,39.646-27.324c15.565,0,29.764,7.543,37.06,19.695c5.922,9.813,6.118,21.009,0.546,31.497
	c-4.019,7.561-6.4,15.036-8.704,22.263C161.34,389.035,157.286,401.801,137.574,401.801z"/>
<path style="fill:#FEDEA1;" d="M235.776,151.646c-28.237,0-51.2-22.963-51.2-51.2c0-29.611,25.882-33.604,51.2-33.604
	c57.079,0,65.604,21.052,65.604,33.604C301.372,128.026,265.301,151.646,235.776,151.646z"/>
<path style="fill:#A0BF7C;" d="M125.867,252.126c-28.237,0-51.2-22.963-51.2-51.2c0-0.708,0.017-1.314,0.034-1.826l-1.425-10.667
	l11.401-2.586c2.671-0.606,5.939-0.785,11.034-0.896c9.395-0.247,21.086-0.555,30.148-9.617c5.803-5.794,13.201-8.977,20.838-8.977
	c8.252,0,16.222,3.738,21.871,10.266c5.487,6.34,8.499,14.967,8.491,24.32C177.067,229.154,154.103,252.126,125.867,252.126z"/>
<path style="fill:#A7B0C0;" d="M256,499.2C121.899,499.2,12.8,390.101,12.8,256S121.899,12.8,256,12.8S499.2,121.899,499.2,256
	c0,41.498-2.534,82.022-32.811,82.022c-10.103,0-20.105-5.171-31.693-11.17c-13.491-6.98-28.774-14.891-45.21-14.891
	c-8.619,0-16.811,2.133-25.071,6.537c-17.775,9.455-16.99,31.351-13.602,66.295c2.961,30.481,6.306,65.033-15.215,88.747
	C319.932,490.812,293.888,499.2,256,499.2z M262.972,341.376c-21.171,0-38.4,17.229-38.4,38.4s17.229,38.4,38.4,38.4
	s38.4-17.229,38.4-38.4S284.151,341.376,262.972,341.376z M137.574,299.401c-16.649,0-34.441,12.262-39.654,27.324
	c-3.243,9.37-0.811,17.852,6.852,23.876c10.163,7.987,12.041,19.251,13.687,29.184c2.577,15.522,5.803,22.016,19.115,22.016
	c18.79,0,23.023-10.445,28.894-28.911c2.193-6.903,4.668-14.703,8.695-22.289c5.572-10.479,5.376-21.666-0.538-31.505
	C167.33,306.944,153.131,299.401,137.574,299.401z M146.551,165.99c-7.424,0-14.575,3.226-20.685,9.335
	c-9.071,9.079-20.284,9.361-30.182,9.609c-15.514,0.41-21.018,2.884-21.018,15.991c0,28.237,22.963,51.2,51.2,51.2
	s51.2-22.963,51.2-51.2C177.067,181.658,163.379,165.99,146.551,165.99z M377.626,116.147c-7.825,0-13.73,6.955-22.733,18.313
	c-2.603,3.294-5.419,6.852-8.576,10.496c-8.858,10.249-16.367,19.456-18.645,28.365c-1.476,5.786-1.911,14.797,11.273,26.189
	c10.172,8.781,20.045,13.235,29.346,13.235c10.47,0,20.642-5.641,30.251-16.751c8.934-10.342,13.312-23.561,12.305-37.197
	c-0.998-13.653-7.253-26.086-17.596-35.012C387.311,118.647,382.199,116.147,377.626,116.147z M235.776,66.85
	c-35.891,0-51.2,10.052-51.2,33.604c0,28.237,22.963,51.2,51.2,51.2c29.525,0,65.604-23.629,65.604-51.2
	C301.372,71.219,260.275,66.85,235.776,66.85z"/>
<path style="fill:#6FB0B6;" d="M368.196,212.787c-9.464,0-18.765-4.215-29.252-13.278c-10.052-8.678-13.628-17.015-11.255-26.214
	c2.261-8.892,10.112-18.492,18.637-28.356c3.14-3.627,5.948-7.168,8.542-10.47c9.523-11.989,13.995-16.922,20.429-18.108
	l1.152-0.213h1.169c4.565,0,9.685,2.492,15.642,7.637c10.359,8.943,16.606,21.376,17.596,35.021
	c0.998,13.636-3.371,26.846-12.297,37.197C388.796,207.292,378.871,212.787,368.196,212.787
	C368.196,212.787,368.205,212.787,368.196,212.787z"/>
<g>
	<path style="fill:#573A32;" d="M256,0C114.842,0,0,114.842,0,256s114.842,256,256,256c41.702,0,70.844-9.762,89.079-29.858
		c25.335-27.913,21.538-67.098,18.483-98.586c-3.26-33.596-3.029-48.495,6.869-53.76c6.374-3.388,12.604-5.043,19.055-5.043
		c13.329,0,26.547,6.844,39.33,13.457c12.527,6.485,24.363,12.604,37.572,12.604C512,350.822,512,291.465,512,256
		C512,114.842,397.158,0,256,0z M466.389,325.222c-16.828,0-43.477-26.061-76.902-26.061c-9.805,0-20.19,2.244-31.087,8.038
		c-66.133,35.2,51.2,179.2-102.4,179.2C128.751,486.4,25.6,383.249,25.6,256S128.751,25.6,256,25.6S486.4,128.751,486.4,256
		C486.4,309.939,479.275,325.222,466.389,325.222z"/>
	<path style="fill:#573A32;" d="M262.972,328.576c-28.237,0-51.2,22.963-51.2,51.2s22.963,51.2,51.2,51.2s51.2-22.963,51.2-51.2
		S291.209,328.576,262.972,328.576z M262.972,405.376c-14.114,0-25.6-11.486-25.6-25.6s11.486-25.6,25.6-25.6
		c14.114,0,25.6,11.486,25.6,25.6S277.086,405.376,262.972,405.376z"/>
	<path style="fill:#573A32;" d="M137.574,286.601c-22.05,0-44.774,15.787-51.746,35.934c-5.009,14.498-0.887,28.749,11.034,38.127
		c5.837,4.591,7.287,11.076,8.977,21.222c1.903,11.435,5.436,32.708,31.735,32.708c29.073,0,35.738-20.983,41.097-37.854
		c2.125-6.69,4.326-13.602,7.799-20.147c7.646-14.387,7.322-30.464-0.879-44.1C176,296.525,157.602,286.601,137.574,286.601z
		 M163.874,344.585c-4.565,8.602-7.236,16.998-9.6,24.414c-5.7,17.937-7.415,20.002-16.7,20.002c-2.825,0-3.738-0.512-3.746-0.512
		c-1.135-1.161-2.133-7.185-2.739-10.803c-1.835-11.017-4.335-26.103-18.398-37.154c-2.449-1.929-4.463-4.429-2.662-9.626
		c3.063-8.849,15.121-18.714,27.554-18.714c10.923,0,21.163,5.291,26.086,13.491C166.153,329.813,168.201,336.452,163.874,344.585z"
		/>
	<path style="fill:#573A32;" d="M189.867,200.926c0-26.325-19.422-47.735-43.315-47.735c-10.889,0-21.171,4.523-29.739,13.09
		c-5.086,5.086-11.503,5.615-21.453,5.862c-10.871,0.29-33.502,0.862-33.502,28.791c0,35.285,28.715,64,64,64
		S189.867,236.211,189.867,200.926z M87.467,200.926c0-1.34,0.102-2.227,0.051-2.603c1.877-0.427,5.786-0.529,8.499-0.589
		c10.436-0.273,26.214-0.674,38.903-13.363c11.639-11.614,29.363-2.901,29.346,16.546c0,21.171-17.229,38.4-38.4,38.4
		S87.467,222.097,87.467,200.926z"/>
	<path style="fill:#573A32;" d="M235.776,54.05c-15.821,0-64,0-64,46.404c0,35.285,28.715,64,64,64
		c35.516,0,78.404-28.553,78.404-64C314.172,83.123,303.991,54.05,235.776,54.05z M235.776,138.846c-21.171,0-38.4-17.229-38.4-38.4
		c0-11.375,2.884-20.804,38.4-20.804c15.872,0,52.804,2.022,52.804,20.804C288.572,119.859,258.338,138.846,235.776,138.846z"/>
	<path style="fill:#573A32;" d="M401.621,114.099c-8.363-7.228-16.213-10.752-24.004-10.752c-14.413,0-23.322,11.247-32.759,23.159
		c-2.5,3.166-5.197,6.579-8.226,10.078c-9.941,11.503-18.398,21.965-21.359,33.579c-3.575,14.037,1.579,27.179,15.309,39.04
		c12.561,10.846,25.25,16.35,37.709,16.35c14.362,0,27.785-7.125,39.936-21.188c11.179-12.937,16.64-29.449,15.386-46.498
		S414.566,125.261,401.621,114.099z M388.864,187.639c-13.739,15.915-25.276,16.239-41.549,2.185
		c-8.713-7.526-7.748-11.298-7.228-13.338c1.579-6.204,8.721-14.848,15.923-23.177c3.277-3.789,6.204-7.475,8.909-10.914
		c4.113-5.171,10.325-13.013,12.698-13.449c0.026,0,2.176,0.128,7.279,4.523c7.765,6.699,12.45,16.026,13.184,26.249
		C398.839,169.958,395.563,179.874,388.864,187.639z"/>
</g>
<g>
</g>
<g>
</g>
<g>
</g>
<g>
</g>
<g>
</g>
<g>
</g>
<g>
</g>
<g>
</g>
<g>
</g>
<g>
</g>
<g>
</g>
<g>
</g>
<g>
</g>
<g>
</g>
<g>
</g>
</svg>
