<svg id="Lager_1" data-name="Lager 1" xmlns="http://www.w3.org/2000/svg" viewBox="0 0 228.12 271.23"><defs><style>.cls-1{fill:#ea5b0c;}.cls-2{fill:#1d71b8;}.cls-3{fill:#be1622;}.cls-4{fill:#dedc00;}.cls-5{fill:#009fe3;}.cls-6{fill:#f39200;}.cls-7{fill:#4f310d;}.cls-8{fill:#f9b233;}.cls-9{font-size:15.62px;fill:#1d1d1b;font-family:Montserrat-Bold, Montserrat;font-weight:700;}.cls-10{letter-spacing:-0.01em;}.cls-11{letter-spacing:-0.01em;}.cls-12{fill:#3aaa35;}</style></defs><title>Rityta 1</title><polygon class="cls-1" points="7.74 157.66 182.41 197.97 182.41 205.62 7.74 205.62 7.74 157.66"/><polygon class="cls-2" points="190.34 156.09 81.47 168.53 86.55 175.85 182.41 197.97 190.34 156.09"/><path class="cls-3" d="M194.38,145l22.27-89.79L48.42,14s-32.82,133-34,138.3S71.25,169.7,71.25,169.7l121.09-15.64Z"/><polygon class="cls-4" points="223.12 203.38 180.42 203.38 216.65 55.26 220.78 55.26 223.12 205.62 223.12 203.38"/><polygon class="cls-5" points="223.12 5 47.88 5 48.42 14.03 223.12 55.26 223.12 5"/><polygon class="cls-6" points="5 5 50.64 5 13.19 157.66 5 157.66 5 5"/><path class="cls-7" d="M228.12,210.62H0V0H228.12ZM10,200.62H218.12V10H10Z"/><path class="cls-7" d="M186.19,204,6.76,163.4,42,7.45,221.43,48ZM18.72,155.85,178.64,192,209.48,55.55,49.56,19.41Z"/><path class="cls-8" d="M9.15,223.14l.07,7.37,12.91-.12.05,5.18-12.91.12.1,10.16-6.46.06L2.65,218l21.07-.2.05,5.18Z"/><path class="cls-8" d="M46.13,245.5l-5.45-7.72h-.32l-5.62.06.08,7.77-6.46.06-.26-27.89,12.07-.11c7.45-.08,12.15,3.74,12.21,10a9.08,9.08,0,0,1-5.66,8.86l6.34,8.9Zm-6.27-22.57-5.26,0,.09,9.72,5.26,0c3.95,0,5.92-1.89,5.89-4.92S43.8,222.89,39.86,222.93Z"/><path class="cls-8" d="M76,239.24l-13,.12-2.41,6-6.62.06,12.17-28,6.37-.06,12.74,27.76-6.77.07Zm-2.08-4.89-4.52-10.63L65,234.44Z"/><path class="cls-8" d="M113.53,244.85l-.2-16.73L105.25,242l-2.91,0-8.29-13.35L94.21,245l-6.06.06-.27-27.89,5.34-.05,10.6,17.23L113.94,217l5.3-.05.34,27.88Z"/><path class="cls-8" d="M147.73,239.35l.05,5.17-21.59.21-.27-27.89,21.08-.2.05,5.18-14.66.14.05,6.06,12.95-.13.05,5-12.95.13.06,6.45Z"/><text class="cls-9" transform="translate(32.51 267.08)">A<tspan class="cls-10" x="11.96" y="0">R</tspan><tspan x="23.28" y="0">T &amp; PO</tspan><tspan class="cls-11" x="77.75" y="0">S</tspan><tspan x="87.56" y="0">TERSHOP</tspan></text><path class="cls-8" d="M193.39,245l-.2-16.73-8.07,13.86-2.91,0-8.3-13.35.16,16.38-6.06,0-.26-27.88,5.34,0,10.6,17.23,10.11-17.43,5.3,0,.35,27.88Z"/><path class="cls-8" d="M227.6,239.45l.05,5.18-21.6.21L205.79,217l21.07-.2,0,5.18-14.66.14.06,6.06,12.95-.13,0,5-12.94.13.06,6.45Z"/><rect class="cls-12" x="63.1" y="102.99" width="124.19" height="60.89" transform="translate(-14.34 15.07) rotate(-6.52)"/><path class="cls-7" d="M62.55,176.27l-8-70.43L187.83,90.6l8,70.44Zm3-61.63,5.77,50.56,113.46-13L179,101.67Z"/></svg>